<svg width="43" height="50" viewBox="0 0 43 50" fill="none" xmlns="http://www.w3.org/2000/svg">
<g clip-path="url(#clip0)">
<path d="M37.723 39.2771L4.35091 34.376C3.38131 34.2336 2.69377 33.1962 2.81516 32.0588L5.17382 9.96191C5.29521 8.8246 6.17964 8.01806 7.14933 8.16044L40.5215 13.0616C41.4911 13.204 42.1786 14.2415 42.0572 15.3788L39.6985 37.4757C39.5771 38.613 38.6926 39.4195 37.723 39.2771Z" fill="#3F5EAB"/>
<path d="M36.4899 41.8559H2.85726C1.88008 41.8559 1.08789 40.9266 1.08789 39.7805V17.5109C1.08789 16.3648 1.88008 15.4357 2.85726 15.4357H36.4899C37.4671 15.4357 38.2593 16.3649 38.2593 17.5109V39.7805C38.2593 40.9266 37.4671 41.8559 36.4899 41.8559Z" fill="url(#paint0_linear)"/>
<path d="M14.6137 35.2052C15.6851 35.2052 15.687 33.252 14.6137 33.252C11.7078 33.252 5.05644 33.252 4.63675 33.252C3.56532 33.252 3.56357 35.2052 4.63675 35.2052C4.63675 35.2052 14.194 35.2052 14.6137 35.2052Z" fill="white"/>
<path d="M17.5 35.2052C18.1825 35.2052 18.865 35.2052 19.5475 35.2052C20.6189 35.2052 20.6207 33.252 19.5475 33.252C18.865 33.252 18.1825 33.252 17.5 33.252C16.4286 33.252 16.4269 35.2052 17.5 35.2052Z" fill="white"/>
<path d="M27.3421 38.2236C29.0597 38.2236 30.4521 36.5904 30.4521 34.5758C30.4521 32.5611 29.0597 30.9279 27.3421 30.9279C25.6246 30.9279 24.2322 32.5611 24.2322 34.5758C24.2322 36.5904 25.6246 38.2236 27.3421 38.2236Z" fill="url(#paint1_linear)"/>
<path d="M32.3653 38.2236C34.0829 38.2236 35.4753 36.5904 35.4753 34.5758C35.4753 32.5611 34.0829 30.9279 32.3653 30.9279C30.6477 30.9279 29.2554 32.5611 29.2554 34.5758C29.2554 36.5904 30.6477 38.2236 32.3653 38.2236Z" fill="#3F5EAB"/>
<path d="M1.08782 24.3368C2.32368 24.3368 38.0775 24.3975 38.1967 24.3368C38.2114 24.3293 38.2421 24.3368 38.2592 24.3368C38.2745 24.3368 38.275 21.8954 38.2592 21.8954C37.0234 21.8954 1.26965 21.8348 1.15043 21.8954C1.13561 21.9029 1.10489 21.8954 1.08782 21.8954C1.07258 21.8954 1.072 24.3368 1.08782 24.3368Z" fill="white"/>
</g>
<defs>
<linearGradient id="paint0_linear" x1="5.2679" y1="45.543" x2="38.637" y2="17.0943" gradientUnits="userSpaceOnUse">
<stop stop-color="#00FFFF"/>
<stop offset="1" stop-color="#FF7BAC"/>
</linearGradient>
<linearGradient id="paint1_linear" x1="24.2321" y1="34.5758" x2="30.4521" y2="34.5758" gradientUnits="userSpaceOnUse">
<stop stop-color="#B3B3B3"/>
<stop offset="0.0161" stop-color="#B7B7B7"/>
<stop offset="0.152" stop-color="#D1D1D1"/>
<stop offset="0.3016" stop-color="#E5E5E5"/>
<stop offset="0.4698" stop-color="#F4F4F4"/>
<stop offset="0.6721" stop-color="#FCFCFC"/>
<stop offset="1" stop-color="white"/>
</linearGradient>
<clipPath id="clip0">
<rect width="42.6273" height="50" fill="white" transform="translate(0.26001)"/>
</clipPath>
</defs>
</svg>
