<svg width="44" height="50" viewBox="0 0 44 50" fill="none" xmlns="http://www.w3.org/2000/svg">
<path d="M17.4354 14.3406L17.4398 14.3427C17.5322 13.8812 17.8679 13.5417 18.2879 13.5417H30.252C30.2671 13.5417 30.2822 13.5344 30.2973 13.5354C30.0424 8.55729 26.4821 6.25 23.341 6.25H11.377C10.956 6.25 10.6203 6.59896 10.5289 7.05937L10.5244 7.05729L5.29457 35.2219L5.30612 35.2229C5.29369 35.2896 5.27148 35.3531 5.27148 35.425C5.27148 36.001 5.66845 36.4573 6.15955 36.4573H13.3272L17.4354 14.3406Z" fill="#1565C0"/>
<path d="M30.2973 13.5354C30.3444 14.4479 30.2929 15.4406 30.0939 16.5375C28.9563 22.7823 24.8437 26.0323 19.7612 26.0323C19.7612 26.0323 16.6796 26.0323 15.931 26.0323C15.4683 26.0323 15.2499 26.351 15.1495 26.5948L13.6043 34.9792L13.3334 36.4677H13.3281L12.2064 42.5052L12.218 42.5063C12.2056 42.5729 12.1833 42.6365 12.1833 42.7083C12.1833 43.2844 12.5803 43.75 13.0714 43.75H19.5836L19.5952 43.7396C20.0143 43.7323 20.3474 43.3813 20.4344 42.9188L20.4504 42.9031L22.0596 34.1365C22.0596 34.1365 22.1715 33.3 22.921 33.3C23.6705 33.3 26.6314 33.3 26.6314 33.3C31.7138 33.3 35.8682 30.0646 37.0067 23.8187C38.2873 16.7771 34.005 13.5615 30.2973 13.5354Z" fill="#039BE5"/>
<path d="M18.2878 13.5417C17.8668 13.5417 17.5311 13.8813 17.4397 14.3427L17.4352 14.3406L15.1484 26.5958C15.2488 26.3521 15.4673 26.0333 15.9299 26.0333C16.6795 26.0333 19.6909 26.0333 19.6909 26.0333C24.7733 26.0333 28.9553 22.7833 30.0929 16.5385C30.2927 15.4417 30.3433 14.449 30.2962 13.5365C30.282 13.5344 30.266 13.5417 30.2518 13.5417H18.2878Z" fill="#283593"/>
</svg>
