<svg width="39" height="45" viewBox="0 0 39 45" fill="none" xmlns="http://www.w3.org/2000/svg">
<path d="M32.0723 38.4375H6.49588C4.7375 38.4375 3.29883 36.75 3.29883 34.6875V15.0938C3.29883 13.875 3.77839 12.75 4.65757 12L19.2841 0L33.9106 12C34.7898 12.6563 35.2693 13.875 35.2693 15.0938V34.6875C35.2693 36.75 33.8307 38.4375 32.0723 38.4375Z" fill="#78909C"/>
<path d="M27.2768 0.9375H11.2915V30H27.2768V0.9375Z" fill="#AED581"/>
<path d="M10.4922 0V30.9375H28.076V0H10.4922ZM26.4774 29.0625H12.0907V1.875H26.4774V29.0625Z" fill="#558B2F"/>
<path d="M27.2766 2.8125C27.2766 4.40625 27.0368 5.625 25.6781 5.625C24.3193 5.625 23.2803 4.40625 23.2803 2.8125C23.2803 1.21875 24.3193 0.9375 25.6781 0.9375C27.0368 0.9375 27.2766 1.21875 27.2766 2.8125Z" fill="#558B2F"/>
<path d="M12.89 0.9375C14.2488 0.9375 15.2878 1.21875 15.2878 2.8125C15.2878 4.40625 14.2488 5.625 12.89 5.625C11.5313 5.625 11.2915 4.40625 11.2915 2.8125C11.2915 1.21875 11.5313 0.9375 12.89 0.9375Z" fill="#558B2F"/>
<path d="M19.2841 9.375C20.1669 9.375 20.8826 8.53553 20.8826 7.5C20.8826 6.46447 20.1669 5.625 19.2841 5.625C18.4012 5.625 17.6855 6.46447 17.6855 7.5C17.6855 8.53553 18.4012 9.375 19.2841 9.375Z" fill="#558B2F"/>
<path d="M19.2841 24.375C21.9326 24.375 24.0797 21.8566 24.0797 18.75C24.0797 15.6434 21.9326 13.125 19.2841 13.125C16.6356 13.125 14.4885 15.6434 14.4885 18.75C14.4885 21.8566 16.6356 24.375 19.2841 24.375Z" fill="#558B2F"/>
<path d="M32.0723 38.4375H6.49588C4.7375 38.4375 3.29883 36.75 3.29883 34.6875V15.9375L19.2841 28.125L35.2693 15.9375V34.6875C35.2693 36.75 33.8307 38.4375 32.0723 38.4375Z" fill="#CFD8DC"/>
</svg>
